# Blender v2.82 (sub 7) OBJ File: ''
# www.blender.org
mtllib LBM.mtl
o LightBulb_LightBulbMesh
v -0.101500 -0.175803 0.000000
v -0.175803 -0.101500 0.000000
v -0.124312 -0.101500 -0.124312
v -0.071771 -0.175803 -0.071771
v -0.203000 -0.000000 0.000000
v -0.175803 0.101500 0.000000
v -0.124312 0.101500 -0.124312
v -0.143543 -0.000000 -0.143543
v -0.101500 0.175803 0.000000
v -0.071771 0.175803 -0.071771
v 0.000000 -0.101500 -0.175803
v 0.000000 -0.175803 -0.101500
v 0.000000 0.101500 -0.175803
v 0.000000 -0.000000 -0.203000
v 0.000000 0.175803 -0.101500
v 0.124311 0.101500 -0.124312
v 0.143542 -0.000000 -0.143543
v 0.124311 -0.101500 -0.124312
v 0.071771 0.175803 -0.071771
v 0.071771 -0.175803 -0.071771
v 0.203000 -0.000000 0.000000
v 0.175803 -0.101500 0.000000
v 0.101500 0.175803 0.000000
v 0.175803 0.101500 0.000000
v 0.101500 -0.175803 0.000000
v 0.143542 -0.000000 0.143543
v 0.124311 -0.101500 0.124312
v 0.071771 0.175803 0.071771
v 0.124311 0.101500 0.124312
v 0.071771 -0.175803 0.071771
v 0.000000 -0.000000 0.203000
v 0.000000 -0.101500 0.175803
v 0.000000 0.175803 0.101500
v 0.000000 0.101500 0.175803
v 0.000000 -0.175803 0.101500
v -0.143543 -0.000000 0.143543
v -0.124312 -0.101500 0.124312
v -0.071771 0.175803 0.071771
v -0.124312 0.101500 0.124312
v -0.071771 -0.175803 0.071771
v 0.000000 0.203000 0.000000
v 0.000000 -0.203000 0.000000
vn -0.6786 -0.6786 -0.2811
vn -0.8968 0.2403 -0.3715
vn -0.8968 -0.2403 -0.3715
vn -0.6786 0.6786 -0.2811
vn -0.2811 -0.6786 -0.6786
vn -0.3715 0.2403 -0.8968
vn -0.3715 -0.2403 -0.8968
vn -0.2811 0.6786 -0.6786
vn 0.3715 0.2403 -0.8968
vn 0.3715 -0.2403 -0.8968
vn 0.2811 0.6786 -0.6786
vn 0.2811 -0.6786 -0.6786
vn 0.8968 -0.2403 -0.3715
vn 0.6786 0.6786 -0.2811
vn 0.6786 -0.6786 -0.2811
vn 0.8968 0.2403 -0.3715
vn 0.8968 -0.2403 0.3715
vn 0.6786 0.6786 0.2811
vn 0.6786 -0.6786 0.2811
vn 0.8968 0.2403 0.3715
vn 0.3715 -0.2403 0.8968
vn 0.2811 0.6786 0.6786
vn 0.2811 -0.6786 0.6786
vn 0.3715 0.2403 0.8968
vn -0.3715 -0.2403 0.8968
vn -0.2811 0.6786 0.6786
vn -0.2811 -0.6786 0.6786
vn -0.3715 0.2403 0.8968
vn -0.2573 0.9604 -0.1066
vn -0.2573 -0.9604 -0.1066
vn -0.1066 0.9604 -0.2573
vn -0.1066 -0.9604 -0.2573
vn 0.1066 0.9604 -0.2573
vn 0.1066 -0.9604 -0.2573
vn 0.2573 0.9604 -0.1066
vn 0.2573 -0.9604 -0.1066
vn 0.2573 -0.9604 0.1066
vn 0.2573 0.9604 0.1066
vn 0.1066 -0.9604 0.2573
vn 0.1066 0.9604 0.2573
vn -0.1066 -0.9604 0.2573
vn -0.1066 0.9604 0.2573
vn -0.8968 -0.2403 0.3715
vn -0.6786 0.6786 0.2811
vn -0.6786 -0.6786 0.2811
vn -0.8968 0.2403 0.3715
vn -0.2573 0.9604 0.1066
vn -0.2573 -0.9604 0.1066
usemtl None
s 1
f 1//1 2//1 3//1 4//1
f 5//2 6//2 7//2 8//2
f 2//3 5//3 8//3 3//3
f 6//4 9//4 10//4 7//4
f 4//5 3//5 11//5 12//5
f 8//6 7//6 13//6 14//6
f 3//7 8//7 14//7 11//7
f 7//8 10//8 15//8 13//8
f 14//9 13//9 16//9 17//9
f 11//10 14//10 17//10 18//10
f 13//11 15//11 19//11 16//11
f 12//12 11//12 18//12 20//12
f 18//13 17//13 21//13 22//13
f 16//14 19//14 23//14 24//14
f 20//15 18//15 22//15 25//15
f 17//16 16//16 24//16 21//16
f 22//17 21//17 26//17 27//17
f 24//18 23//18 28//18 29//18
f 25//19 22//19 27//19 30//19
f 21//20 24//20 29//20 26//20
f 27//21 26//21 31//21 32//21
f 29//22 28//22 33//22 34//22
f 30//23 27//23 32//23 35//23
f 26//24 29//24 34//24 31//24
f 32//25 31//25 36//25 37//25
f 34//26 33//26 38//26 39//26
f 35//27 32//27 37//27 40//27
f 31//28 34//28 39//28 36//28
f 9//29 41//29 10//29
f 42//30 1//30 4//30
f 10//31 41//31 15//31
f 42//32 4//32 12//32
f 15//33 41//33 19//33
f 42//34 12//34 20//34
f 19//35 41//35 23//35
f 42//36 20//36 25//36
f 42//37 25//37 30//37
f 23//38 41//38 28//38
f 42//39 30//39 35//39
f 28//40 41//40 33//40
f 42//41 35//41 40//41
f 33//42 41//42 38//42
f 37//43 36//43 5//43 2//43
f 39//44 38//44 9//44 6//44
f 40//45 37//45 2//45 1//45
f 36//46 39//46 6//46 5//46
f 38//47 41//47 9//47
f 42//48 40//48 1//48
