# Blender v2.82 (sub 7) OBJ File: 'Stanza.blend'
# www.blender.org
mtllib WallsMesh.mtl
o Room_WallsMesh
v -5.000000 0.000000 5.000000
v 5.000000 0.000000 5.000000
v -5.000000 0.000000 -5.000000
v 5.000000 0.000000 -5.000000
v -5.000000 3.000000 5.000000
v -5.000000 3.000000 -5.000000
v 5.000000 3.000000 -5.000000
v -5.000000 3.000000 5.000000
v 5.000000 3.000000 5.000000
v 5.000000 3.000000 -5.000000
v -5.000000 3.000000 -5.000000
v 5.000000 3.000000 -5.000000
v -5.000000 3.000000 5.000000
v 5.000000 3.000000 5.000000
vn 0.0000 1.0000 0.0000
vn 0.0000 0.0000 1.0000
vn 1.0000 0.0000 0.0000
vn -1.0000 0.0000 0.0000
vn 0.0000 0.0000 -1.0000
vn 0.0000 -1.0000 0.0000
usemtl None
s off
f 1//1 2//1 4//1 3//1
f 3//2 4//2 7//2 6//2
f 1//3 3//3 6//3 5//3
f 4//4 2//4 9//4 10//4
f 2//5 1//5 8//5 9//5
f 11//6 12//6 14//6 13//6
